<?xml version="1.0" encoding="UTF-8" standalone="no"?>
<svg
   width="36"
   height="52"
   viewBox="0 0 36 52"
   fill="none"
   version="1.1"
   id="svg17"
   sodipodi:docname="industri-energi-logo.svg"
   inkscape:version="1.3 (0e150ed6c4, 2023-07-21)"
   xmlns:inkscape="http://www.inkscape.org/namespaces/inkscape"
   xmlns:sodipodi="http://sodipodi.sourceforge.net/DTD/sodipodi-0.dtd"
   xmlns="http://www.w3.org/2000/svg"
   xmlns:svg="http://www.w3.org/2000/svg">
  <sodipodi:namedview
     id="namedview17"
     pagecolor="#ffffff"
     bordercolor="#000000"
     borderopacity="0.25"
     inkscape:showpageshadow="2"
     inkscape:pageopacity="0.0"
     inkscape:pagecheckerboard="0"
     inkscape:deskcolor="#d1d1d1"
     inkscape:zoom="10.007299"
     inkscape:cx="30.527717"
     inkscape:cy="26.030999"
     inkscape:window-width="1920"
     inkscape:window-height="939"
     inkscape:window-x="1920"
     inkscape:window-y="32"
     inkscape:window-maximized="0"
     inkscape:current-layer="g17" />
  <g
     clip-path="url(#clip0)"
     id="g17">
    <path
       d="m 18.8038,51.7307 c 0.8494,-0.0304 3.7137,-0.7929 5.782,-2.8906 1.8245,-1.8512 2.8377,-3.5886 3.2186,-5.8722 0.3923,-2.2388 0.0504,-4.5438 -0.9751,-6.574 -0.6694,-1.3345 -1.549,-2.5537 -2.6053,-3.6113 -1.8474,-1.8474 -4.1328,-3.6113 -6.5705,-6.5816 -1.5422,-1.9002 -2.596,-4.1463 -3.07,-6.5436 C 12.8809,11.7937 16.7965,3.34578 19.0552,0 l -5.2259,8.8576 c -3.0205,5.3487 -3.8127,9.7301 -3.89654,12.651 -0.12569,4.0476 0.70844,9.3014 5.45444,12.632 1.6721,1.1722 3.7709,2.5568 5.0316,4.5521 0.7522,1.2277 1.1546,2.6362 1.164,4.0744 0.0094,1.4381 -0.3745,2.8517 -1.1107,4.089 -2.0416,3.2889 -8.7606,3.1448 -10.1127,3.1448 0.0038,0 4.3993,1.7222 8.4444,1.7298 z"
       fill="#ffffff"
       id="path1" />
    <path
       d="m 23.4622,49.1967 c -1.7864,1.4035 -3.7289,2.3291 -5.4392,2.5112 2.0354,0.0894 4.0677,-0.2359 5.9725,-0.9559 2.8757,-1.0698 5.302,-2.4392 7.7207,-5.3108 2.1103,-2.457 3.4924,-5.4504 3.9918,-8.6452 C 36.2727,33.084 35.67,29.289 33.9826,25.9317 30.3222,18.5877 17.3222,11.9947 18.682,0 c -2.6967,4.55209 -8.1321,16.8541 -1.1427,26.2731 3.5081,4.719 6.2924,5.2729 8.2692,8.5048 2.3768,3.8617 1.954,11.0426 -2.3463,14.4188 z"
       fill="#da1f33"
       id="path2" />
    <path
       d="m 13.8902,50.6949 c 1.3884,-0.0381 2.7422,-0.4393 3.9256,-1.1633 1.1834,-0.7241 2.1546,-1.7455 2.8162,-2.9617 0.6615,-1.2163 0.9901,-2.5844 0.9527,-3.9671 C 21.5472,41.2201 21.1451,39.8715 20.4188,38.6926 19.158,36.701 17.0593,35.3164 15.3871,34.1405 10.6412,30.8099 9.80702,25.556 9.93272,21.5084 10.0165,18.5761 10.8088,14.2061 13.8293,8.85742 11.7115,11.8163 8.44723,16.2204 7.09505,18.0337 c -2.03147,2.7552 -3.80136,5.6926 -5.28683,8.7741 -1.113067,2.4843 -1.634499,5.1911 -1.523581,7.9093 0.106651,6.297 3.915601,11.4636 8.276851,14.267 1.54051,1.1354 3.41241,1.7364 5.32871,1.7108 z"
       fill="#a4a7a9"
       id="path3" />
  </g>
  <defs
     id="defs17">
    <clipPath
       id="clip0">
      <rect
         width="135.778"
         height="52"
         fill="#ffffff"
         transform="translate(0.284668)"
         id="rect17"
         x="0"
         y="0" />
    </clipPath>
  </defs>
</svg>
